<mxfile host="Electron" agent="Mozilla/5.0 (Macintosh; Intel Mac OS X 10_15_7) AppleWebKit/537.36 (KHTML, like Gecko) draw.io/28.1.2 Chrome/138.0.7204.243 Electron/37.4.0 Safari/537.36" version="28.1.2">
  <diagram name="Page-1" id="u1q2go3mMjz7XoUG-E2h">
    <mxGraphModel dx="946" dy="673" grid="1" gridSize="10" guides="1" tooltips="1" connect="1" arrows="1" fold="1" page="1" pageScale="1" pageWidth="850" pageHeight="1100" math="0" shadow="0">
      <root>
        <mxCell id="0" />
        <mxCell id="1" parent="0" />
        <mxCell id="ZvFiiyq6o4AYsx_Lekvg-1" value="" style="rounded=0;whiteSpace=wrap;html=1;shadow=0;sketch=1;curveFitting=1;jiggle=2;fillColor=none;strokeColor=#b85450;" vertex="1" parent="1">
          <mxGeometry x="170" y="80" width="200" height="400" as="geometry" />
        </mxCell>
        <mxCell id="ZvFiiyq6o4AYsx_Lekvg-2" value="ListView" style="text;html=1;align=center;verticalAlign=middle;whiteSpace=wrap;rounded=0;fontSize=28;" vertex="1" parent="1">
          <mxGeometry x="240" y="100" width="60" height="30" as="geometry" />
        </mxCell>
        <mxCell id="ZvFiiyq6o4AYsx_Lekvg-27" style="edgeStyle=orthogonalEdgeStyle;curved=1;rounded=0;orthogonalLoop=1;jettySize=auto;html=1;entryX=1;entryY=0.5;entryDx=0;entryDy=0;" edge="1" parent="1" source="ZvFiiyq6o4AYsx_Lekvg-4" target="ZvFiiyq6o4AYsx_Lekvg-24">
          <mxGeometry relative="1" as="geometry">
            <Array as="points">
              <mxPoint x="780" y="120" />
              <mxPoint x="780" y="425" />
            </Array>
          </mxGeometry>
        </mxCell>
        <mxCell id="ZvFiiyq6o4AYsx_Lekvg-4" value="" style="rounded=0;whiteSpace=wrap;html=1;fillColor=none;strokeColor=#6c8ebf;sketch=1;curveFitting=1;jiggle=2;" vertex="1" parent="1">
          <mxGeometry x="440" y="80" width="240" height="80" as="geometry" />
        </mxCell>
        <mxCell id="ZvFiiyq6o4AYsx_Lekvg-5" value="标题" style="text;html=1;align=center;verticalAlign=middle;whiteSpace=wrap;rounded=0;fontSize=28;" vertex="1" parent="1">
          <mxGeometry x="530" y="90" width="60" height="30" as="geometry" />
        </mxCell>
        <mxCell id="ZvFiiyq6o4AYsx_Lekvg-6" value="副标题" style="text;html=1;align=center;verticalAlign=middle;whiteSpace=wrap;rounded=0;" vertex="1" parent="1">
          <mxGeometry x="530" y="120" width="60" height="30" as="geometry" />
        </mxCell>
        <mxCell id="ZvFiiyq6o4AYsx_Lekvg-8" value="单元格布局" style="text;html=1;align=center;verticalAlign=middle;whiteSpace=wrap;rounded=0;fontSize=18;" vertex="1" parent="1">
          <mxGeometry x="500" y="40" width="120" height="30" as="geometry" />
        </mxCell>
        <mxCell id="ZvFiiyq6o4AYsx_Lekvg-28" style="edgeStyle=orthogonalEdgeStyle;curved=1;rounded=0;orthogonalLoop=1;jettySize=auto;html=1;entryX=1;entryY=0.25;entryDx=0;entryDy=0;exitX=1;exitY=0.5;exitDx=0;exitDy=0;" edge="1" parent="1" source="ZvFiiyq6o4AYsx_Lekvg-12" target="ZvFiiyq6o4AYsx_Lekvg-24">
          <mxGeometry relative="1" as="geometry">
            <Array as="points">
              <mxPoint x="740" y="240" />
              <mxPoint x="740" y="398" />
            </Array>
          </mxGeometry>
        </mxCell>
        <mxCell id="ZvFiiyq6o4AYsx_Lekvg-11" value="数据列表" style="shape=table;startSize=30;container=1;collapsible=0;childLayout=tableLayout;strokeColor=#82b366;fontSize=16;sketch=1;curveFitting=1;jiggle=2;fillColor=#d5e8d4;" vertex="1" parent="1">
          <mxGeometry x="440" y="190" width="240" height="150" as="geometry" />
        </mxCell>
        <mxCell id="ZvFiiyq6o4AYsx_Lekvg-12" value="" style="shape=tableRow;horizontal=0;startSize=0;swimlaneHead=0;swimlaneBody=0;strokeColor=inherit;top=0;left=0;bottom=0;right=0;collapsible=0;dropTarget=0;fillColor=none;points=[[0,0.5],[1,0.5]];portConstraint=eastwest;fontSize=16;" vertex="1" parent="ZvFiiyq6o4AYsx_Lekvg-11">
          <mxGeometry y="30" width="240" height="40" as="geometry" />
        </mxCell>
        <mxCell id="ZvFiiyq6o4AYsx_Lekvg-13" value="" style="shape=partialRectangle;html=1;whiteSpace=wrap;connectable=0;strokeColor=inherit;overflow=hidden;fillColor=none;top=0;left=0;bottom=0;right=0;pointerEvents=1;fontSize=16;" vertex="1" parent="ZvFiiyq6o4AYsx_Lekvg-12">
          <mxGeometry width="80" height="40" as="geometry">
            <mxRectangle width="80" height="40" as="alternateBounds" />
          </mxGeometry>
        </mxCell>
        <mxCell id="ZvFiiyq6o4AYsx_Lekvg-14" value="" style="shape=partialRectangle;html=1;whiteSpace=wrap;connectable=0;strokeColor=inherit;overflow=hidden;fillColor=none;top=0;left=0;bottom=0;right=0;pointerEvents=1;fontSize=16;" vertex="1" parent="ZvFiiyq6o4AYsx_Lekvg-12">
          <mxGeometry x="80" width="80" height="40" as="geometry">
            <mxRectangle width="80" height="40" as="alternateBounds" />
          </mxGeometry>
        </mxCell>
        <mxCell id="ZvFiiyq6o4AYsx_Lekvg-15" value="" style="shape=partialRectangle;html=1;whiteSpace=wrap;connectable=0;strokeColor=inherit;overflow=hidden;fillColor=none;top=0;left=0;bottom=0;right=0;pointerEvents=1;fontSize=16;" vertex="1" parent="ZvFiiyq6o4AYsx_Lekvg-12">
          <mxGeometry x="160" width="80" height="40" as="geometry">
            <mxRectangle width="80" height="40" as="alternateBounds" />
          </mxGeometry>
        </mxCell>
        <mxCell id="ZvFiiyq6o4AYsx_Lekvg-16" value="" style="shape=tableRow;horizontal=0;startSize=0;swimlaneHead=0;swimlaneBody=0;strokeColor=inherit;top=0;left=0;bottom=0;right=0;collapsible=0;dropTarget=0;fillColor=none;points=[[0,0.5],[1,0.5]];portConstraint=eastwest;fontSize=16;" vertex="1" parent="ZvFiiyq6o4AYsx_Lekvg-11">
          <mxGeometry y="70" width="240" height="40" as="geometry" />
        </mxCell>
        <mxCell id="ZvFiiyq6o4AYsx_Lekvg-17" value="" style="shape=partialRectangle;html=1;whiteSpace=wrap;connectable=0;strokeColor=inherit;overflow=hidden;fillColor=none;top=0;left=0;bottom=0;right=0;pointerEvents=1;fontSize=16;" vertex="1" parent="ZvFiiyq6o4AYsx_Lekvg-16">
          <mxGeometry width="80" height="40" as="geometry">
            <mxRectangle width="80" height="40" as="alternateBounds" />
          </mxGeometry>
        </mxCell>
        <mxCell id="ZvFiiyq6o4AYsx_Lekvg-18" value="" style="shape=partialRectangle;html=1;whiteSpace=wrap;connectable=0;strokeColor=inherit;overflow=hidden;fillColor=none;top=0;left=0;bottom=0;right=0;pointerEvents=1;fontSize=16;" vertex="1" parent="ZvFiiyq6o4AYsx_Lekvg-16">
          <mxGeometry x="80" width="80" height="40" as="geometry">
            <mxRectangle width="80" height="40" as="alternateBounds" />
          </mxGeometry>
        </mxCell>
        <mxCell id="ZvFiiyq6o4AYsx_Lekvg-19" value="" style="shape=partialRectangle;html=1;whiteSpace=wrap;connectable=0;strokeColor=inherit;overflow=hidden;fillColor=none;top=0;left=0;bottom=0;right=0;pointerEvents=1;fontSize=16;" vertex="1" parent="ZvFiiyq6o4AYsx_Lekvg-16">
          <mxGeometry x="160" width="80" height="40" as="geometry">
            <mxRectangle width="80" height="40" as="alternateBounds" />
          </mxGeometry>
        </mxCell>
        <mxCell id="ZvFiiyq6o4AYsx_Lekvg-20" value="" style="shape=tableRow;horizontal=0;startSize=0;swimlaneHead=0;swimlaneBody=0;strokeColor=inherit;top=0;left=0;bottom=0;right=0;collapsible=0;dropTarget=0;fillColor=none;points=[[0,0.5],[1,0.5]];portConstraint=eastwest;fontSize=16;" vertex="1" parent="ZvFiiyq6o4AYsx_Lekvg-11">
          <mxGeometry y="110" width="240" height="40" as="geometry" />
        </mxCell>
        <mxCell id="ZvFiiyq6o4AYsx_Lekvg-21" value="" style="shape=partialRectangle;html=1;whiteSpace=wrap;connectable=0;strokeColor=inherit;overflow=hidden;fillColor=none;top=0;left=0;bottom=0;right=0;pointerEvents=1;fontSize=16;" vertex="1" parent="ZvFiiyq6o4AYsx_Lekvg-20">
          <mxGeometry width="80" height="40" as="geometry">
            <mxRectangle width="80" height="40" as="alternateBounds" />
          </mxGeometry>
        </mxCell>
        <mxCell id="ZvFiiyq6o4AYsx_Lekvg-22" value="" style="shape=partialRectangle;html=1;whiteSpace=wrap;connectable=0;strokeColor=inherit;overflow=hidden;fillColor=none;top=0;left=0;bottom=0;right=0;pointerEvents=1;fontSize=16;" vertex="1" parent="ZvFiiyq6o4AYsx_Lekvg-20">
          <mxGeometry x="80" width="80" height="40" as="geometry">
            <mxRectangle width="80" height="40" as="alternateBounds" />
          </mxGeometry>
        </mxCell>
        <mxCell id="ZvFiiyq6o4AYsx_Lekvg-23" value="" style="shape=partialRectangle;html=1;whiteSpace=wrap;connectable=0;strokeColor=inherit;overflow=hidden;fillColor=none;top=0;left=0;bottom=0;right=0;pointerEvents=1;fontSize=16;" vertex="1" parent="ZvFiiyq6o4AYsx_Lekvg-20">
          <mxGeometry x="160" width="80" height="40" as="geometry">
            <mxRectangle width="80" height="40" as="alternateBounds" />
          </mxGeometry>
        </mxCell>
        <mxCell id="ZvFiiyq6o4AYsx_Lekvg-30" style="edgeStyle=orthogonalEdgeStyle;curved=1;rounded=0;orthogonalLoop=1;jettySize=auto;html=1;entryX=1;entryY=0.5;entryDx=0;entryDy=0;" edge="1" parent="1" source="ZvFiiyq6o4AYsx_Lekvg-24" target="ZvFiiyq6o4AYsx_Lekvg-29">
          <mxGeometry relative="1" as="geometry" />
        </mxCell>
        <mxCell id="ZvFiiyq6o4AYsx_Lekvg-24" value="" style="rounded=0;whiteSpace=wrap;html=1;fillColor=none;strokeColor=#d6b656;sketch=1;curveFitting=1;jiggle=2;" vertex="1" parent="1">
          <mxGeometry x="440" y="370" width="240" height="110" as="geometry" />
        </mxCell>
        <mxCell id="ZvFiiyq6o4AYsx_Lekvg-25" value="Adapter&lt;div&gt;适配器&lt;/div&gt;" style="text;html=1;align=center;verticalAlign=middle;whiteSpace=wrap;rounded=0;fontSize=28;" vertex="1" parent="1">
          <mxGeometry x="505" y="410" width="110" height="30" as="geometry" />
        </mxCell>
        <mxCell id="ZvFiiyq6o4AYsx_Lekvg-29" value="" style="rounded=0;whiteSpace=wrap;html=1;fillColor=none;strokeColor=#6c8ebf;sketch=1;curveFitting=1;jiggle=2;" vertex="1" parent="1">
          <mxGeometry x="170" y="160" width="200" height="60" as="geometry" />
        </mxCell>
        <mxCell id="ZvFiiyq6o4AYsx_Lekvg-33" value="列表布局" style="text;html=1;align=center;verticalAlign=middle;whiteSpace=wrap;rounded=0;fontSize=18;" vertex="1" parent="1">
          <mxGeometry x="210" y="40" width="120" height="30" as="geometry" />
        </mxCell>
      </root>
    </mxGraphModel>
  </diagram>
</mxfile>
